<?xml version="1.0" standalone="no"?>
<!DOCTYPE svg PUBLIC "-//W3C//DTD SVG 20010904//EN"
 "http://www.w3.org/TR/2001/REC-SVG-20010904/DTD/svg10.dtd">
<svg version="1.0" xmlns="http://www.w3.org/2000/svg"
 width="700.000000pt" height="700.000000pt" viewBox="0 0 700.000000 700.000000"
 preserveAspectRatio="xMidYMid meet">
<metadata>
Created by potrace 1.14, written by Peter Selinger 2001-2017
</metadata>
<g transform="translate(0.000000,700.000000) scale(0.100000,-0.100000)"
fill="#000000" stroke="none">
<path d="M1754 6559 c-104 -9 -151 -22 -249 -68 -143 -67 -262 -182 -331 -319
-35 -71 -74 -203 -74 -252 0 -25 -5 -29 -62 -45 -165 -45 -317 -148 -424 -287
-101 -129 -157 -275 -171 -443 -10 -116 -8 -3585 2 -3685 4 -41 9 -82 10 -90
77 -388 339 -707 696 -849 118 -47 176 -61 339 -79 84 -9 4289 -8 4355 2 185
26 348 107 476 235 109 110 179 232 220 386 l21 80 1 1975 c0 1086 -3 2007 -7
2045 -36 368 -316 667 -680 729 l-70 11 -12 65 c-103 555 -773 784 -1183 404
l-68 -63 -34 35 c-99 104 -245 179 -408 209 -82 15 -219 4 -319 -26 -107 -33
-258 -127 -311 -195 l-20 -25 -50 49 c-173 172 -422 239 -671 183 -94 -22
-228 -94 -305 -164 l-70 -64 -67 62 c-119 110 -227 157 -438 188 -8 2 -51 -1
-96 -4z m171 -344 c107 -30 204 -122 245 -231 11 -31 19 -62 17 -68 -2 -7
-120 -10 -381 -11 l-377 0 6 35 c24 128 166 266 296 285 24 4 45 8 46 9 7 6
104 -6 148 -19z m1064 10 c106 -20 232 -127 270 -230 37 -99 71 -90 -346 -89
-203 1 -374 2 -381 3 -31 3 29 138 90 203 96 101 222 139 367 113z m1111 -6
c96 -22 197 -106 242 -200 37 -79 42 -106 20 -111 -14 -3 -666 -3 -729 1 -20
1 -21 3 -8 45 43 143 168 253 313 275 52 8 95 5 162 -10z m1111 -5 c120 -39
214 -139 253 -268 l13 -41 -376 1 c-207 1 -380 2 -384 3 -13 2 3 60 30 114 30
60 105 138 161 166 91 47 208 56 303 25z"/>
</g>
</svg>
